# xmcd
# Copyright (C) 1995-1998 Ti Kan
#
# Track frame offsets:
#       150
#       14538
#       27423
#       39385
#       53111
#       70065
#       88918
#       103351
#       122840
#       139393
#       160187
#       176324
#       190343
#       204319
#       224823
#       245067
#
# Disc length: 3576 seconds
#
# Revision: 0
# Processed by: cddbd v1.5.2PL0 Copyright (c) Steve Scherf et al.
# Submitted via: CD-Transfer v1.0
#
DISCID=f30df610
DTITLE=X T C - A. Partridge
DYEAR=1900
DGENRE=
TTITLE0=Silence Friction
TTITLE1=Statue Of Liberty
TTITLE2=This Is Pop
TTITLE3=Are You Receiving Me
TTITLE4=Life Begins At The Hop
TTITLE5=Making Plans For Nigel
TTITLE6=Ten Feet Tall
TTITLE7=Wait Till Your Boat Goes Down
TTITLE8=Generals And Majors
TTITLE9=Towers Of London
TTITLE10=Sgt. Rock (Is Going To Help Me)
TTITLE11=Love At First Sight
TTITLE12=Respectable Street
TTITLE13=Senses Working Overtime
TTITLE14=Ball And Chain
TTITLE15=No Thugs In Our House
EXTD=
EXTT0=
EXTT1=
EXTT2=
EXTT3=
EXTT4=
EXTT5=
EXTT6=
EXTT7=
EXTT8=
EXTT9=
EXTT10=
EXTT11=
EXTT12=
EXTT13=
EXTT14=
EXTT15=
PLAYORDER=
